# Blender v2.82 (sub 7) OBJ File: ''
# www.blender.org
mtllib SelectionBox.mtl
o Cube_Cube.002
v -0.500000 -0.500000 0.500000
v -0.500000 2.500000 0.500000
v -0.500000 -0.500000 -0.500000
v -0.500000 2.500000 -0.500000
v 0.500000 -0.500000 0.500000
v 0.500000 2.500000 0.500000
v 0.500000 -0.500000 -0.500000
v 0.500000 2.500000 -0.500000
vt 0.551135 0.457399
vt 0.932333 0.457399
vt 0.932333 0.584465
vt 0.551135 0.584465
vt 0.551135 0.965662
vt 0.424069 0.965662
vt 0.424070 0.584465
vt 0.042872 0.584465
vt 0.042872 0.457399
vt 0.424070 0.457399
vt 0.424070 0.076201
vt 0.551135 0.076201
vt 0.678442 0.207826
vt 0.828603 0.207826
vt 0.828603 0.357987
vt 0.678442 0.357987
vn -1.0000 0.0000 0.0000
vn 0.0000 0.0000 -1.0000
vn 1.0000 0.0000 0.0000
vn 0.0000 0.0000 1.0000
vn 0.0000 -1.0000 0.0000
vn 0.0000 1.0000 0.0000
usemtl SelectionBox
s off
f 1/1/1 2/2/1 4/3/1 3/4/1
f 3/4/2 4/5/2 8/6/2 7/7/2
f 7/7/3 8/8/3 6/9/3 5/10/3
f 5/10/4 6/11/4 2/12/4 1/1/4
f 3/4/5 7/7/5 5/10/5 1/1/5
f 8/13/6 4/14/6 2/15/6 6/16/6
