# Blender v2.82 (sub 7) OBJ File: ''
# www.blender.org
mtllib Tree1.mtl
o Tree1
v -0.200000 0.675000 -0.075000
v -0.425000 1.000000 -0.075000
v -0.200000 0.825000 -0.075000
v -0.275000 1.000000 -0.075000
v -0.200000 0.825000 0.075000
v -0.275000 1.000000 0.075000
v -0.200000 0.675000 0.075000
v -0.425000 1.000000 0.075000
v 0.200000 0.675000 -0.075000
v 0.200000 0.825000 -0.075000
v 0.425000 1.000000 -0.075000
v 0.275000 1.000000 -0.075000
v 0.200000 0.825000 0.075000
v 0.275000 1.000000 0.075000
v 0.200000 0.675000 0.075000
v 0.425000 1.000000 0.075000
v 0.200000 0.000000 -0.200000
v -0.200000 0.000000 -0.200000
v 0.200000 1.000000 -0.200000
v -0.200000 1.000000 -0.200000
v -0.200000 -0.000000 0.200000
v -0.200000 1.000000 0.200000
v 0.200000 -0.000000 0.200000
v 0.200000 1.000000 0.200000
v -0.500000 1.000000 0.500000
v -0.500000 1.000000 -0.500000
v 0.500000 1.000000 -0.500000
v 0.500000 1.000000 0.500000
v 0.500000 3.000000 0.500000
v 0.500000 3.000000 -0.500000
v -0.500000 3.000000 -0.500000
v -0.300000 3.000000 0.300000
v 0.300000 3.000000 0.300000
v -0.300000 3.200000 0.300000
v 0.300000 3.200000 0.300000
v -0.300000 3.000000 -0.300000
v -0.300000 3.200000 -0.300000
v 0.300000 3.000000 -0.300000
v 0.300000 3.200000 -0.300000
v -0.500000 3.000000 0.500000
vt 0.884850 0.450740
vt 0.891274 0.886322
vt 0.900638 0.568036
vt 0.897627 0.770200
vt 0.865507 0.574073
vt 0.854128 0.801033
vt 0.903326 0.458703
vt 0.867898 0.999870
vt 0.880471 0.286495
vt 0.876029 0.334424
vt 0.880273 0.335828
vt 0.878896 0.334523
vt 0.881824 0.325842
vt 0.879853 0.332701
vt 0.873309 0.269064
vt 0.877958 0.335282
vt 0.893623 0.107569
vt 0.887018 0.164616
vt 0.853557 0.379968
vt 0.902175 0.482718
vt 0.919533 0.127384
vt 0.860193 0.493587
vt 0.907284 0.000130
vt 0.919533 0.391634
vt 0.163701 0.148394
vt 0.193592 0.073765
vt 0.199591 0.119030
vt 0.270213 0.173284
vt 0.227417 0.155569
vt 0.192870 0.180414
vt 0.230346 0.248860
vt 0.060340 0.069167
vt 0.493489 0.166378
vt 0.533737 0.127761
vt 0.502480 0.215593
vt 0.588364 0.218084
vt 0.388815 0.264992
vt 0.443867 0.178464
vt 0.389869 0.164867
vt 0.460892 0.228008
vt 0.853297 0.000336
vt 0.661644 0.000130
vt 0.448712 0.536502
vt 0.645801 0.554710
vt 0.853297 0.712385
vt 0.080788 0.748005
vt 0.241365 0.751359
vt 0.110442 0.791296
vt 0.199933 0.800218
vt 0.000130 0.892387
vt 0.048257 0.919273
vt 0.241365 0.924831
vt 0.065940 0.987239
vt 0.189551 0.890971
vt 0.264497 0.547466
vt 0.000130 0.732041
vt 0.283476 0.598913
vt 0.448318 0.606374
vt 0.131482 0.747746
vt 0.766437 0.722011
vt 0.621708 0.606159
vn 0.0000 0.0000 -1.0000
vn 0.9191 0.3939 0.0000
vn 0.0000 -0.0000 1.0000
vn -0.8222 -0.5692 0.0000
vn -0.9191 0.3939 0.0000
vn 0.8222 -0.5692 0.0000
vn -1.0000 0.0000 0.0000
vn 1.0000 0.0000 0.0000
vn 0.0000 -1.0000 0.0000
vn 0.0000 1.0000 0.0000
usemtl Tree1
s off
f 1/1/1 2/2/1 3/3/1
f 3/3/1 2/2/1 4/4/1
f 5/5/2 3/3/2 6/6/2
f 6/6/2 3/3/2 4/4/2
f 7/7/3 5/5/3 8/8/3
f 8/8/3 5/5/3 6/6/3
f 1/1/4 7/7/4 2/2/4
f 2/2/4 7/7/4 8/8/4
f 9/9/1 10/10/1 11/11/1
f 11/11/1 10/10/1 12/12/1
f 10/10/5 13/13/5 12/12/5
f 12/12/5 13/13/5 14/14/5
f 15/15/3 16/16/3 13/13/3
f 13/13/3 16/16/3 14/14/3
f 15/15/6 9/9/6 16/16/6
f 16/16/6 9/9/6 11/11/6
f 17/17/1 18/18/1 19/19/1
f 19/19/1 18/18/1 20/20/1
f 3/3/7 20/20/7 1/1/7
f 1/1/7 20/20/7 18/18/7
f 1/1/7 18/18/7 21/21/7
f 3/3/7 5/5/7 20/20/7
f 20/20/7 5/5/7 22/22/7
f 22/22/7 5/5/7 7/7/7
f 22/22/7 7/7/7 21/21/7
f 21/21/7 7/7/7 1/1/7
f 21/21/3 23/23/3 22/22/3
f 22/22/3 23/23/3 24/24/3
f 9/9/8 19/19/8 10/10/8
f 10/10/8 19/19/8 24/24/8
f 10/10/8 24/24/8 13/13/8
f 13/13/8 24/24/8 15/15/8
f 15/15/8 24/24/8 23/23/8
f 15/15/8 23/23/8 17/17/8
f 19/19/8 9/9/8 17/17/8
f 17/17/8 9/9/8 15/15/8
f 2/25/9 20/26/9 4/27/9
f 4/27/9 20/26/9 22/28/9
f 4/27/9 22/28/9 6/29/9
f 6/29/9 22/28/9 8/30/9
f 8/30/9 22/28/9 25/31/9
f 8/30/9 25/31/9 26/32/9
f 20/26/9 2/25/9 26/32/9
f 26/32/9 2/25/9 8/30/9
f 12/33/9 19/34/9 11/35/9
f 11/35/9 19/34/9 27/36/9
f 11/35/9 27/36/9 28/37/9
f 12/33/9 14/38/9 19/34/9
f 19/34/9 14/38/9 24/39/9
f 24/39/9 14/38/9 16/40/9
f 24/39/9 16/40/9 28/37/9
f 28/37/9 16/40/9 11/35/9
f 27/36/9 19/34/9 26/41/9
f 26/41/9 19/34/9 20/42/9
f 22/28/9 24/39/9 25/31/9
f 25/31/9 24/39/9 28/37/9
f 28/37/8 27/36/8 29/43/8
f 29/43/8 27/36/8 30/44/8
f 27/36/1 26/41/1 30/44/1
f 30/44/1 26/41/1 31/45/1
f 32/46/3 33/47/3 34/48/3
f 34/48/3 33/47/3 35/49/3
f 36/50/7 32/46/7 37/51/7
f 37/51/7 32/46/7 34/48/7
f 38/52/1 36/53/1 39/54/1
f 39/54/1 36/53/1 37/51/1
f 33/47/8 38/52/8 35/49/8
f 35/49/8 38/52/8 39/54/8
f 35/49/10 39/54/10 34/48/10
f 34/48/10 39/54/10 37/51/10
f 25/31/3 28/37/3 40/55/3
f 40/55/3 28/37/3 29/43/3
f 26/32/7 25/31/7 31/56/7
f 31/56/7 25/31/7 40/55/7
f 32/57/10 40/55/10 33/58/10
f 33/58/10 40/55/10 29/43/10
f 33/58/10 29/43/10 30/44/10
f 32/57/10 36/59/10 40/55/10
f 40/55/10 36/59/10 31/56/10
f 31/45/10 36/60/10 38/61/10
f 31/45/10 38/61/10 30/44/10
f 30/44/10 38/61/10 33/58/10
f 18/18/9 17/17/9 21/21/9
f 21/21/9 17/17/9 23/23/9
